<svg xmlns="http://www.w3.org/2000/svg" viewBox="0 0 512 512">
  <rect width="512" height="512" rx="112" fill="#063c27"/>
  <circle cx="256" cy="256" r="190" fill="#fbf7ec" opacity=".08"/>
  <path d="M104 352 190 154l220 72v152H104Z" fill="#efb52b" stroke="#d28a13" stroke-width="16" stroke-linejoin="round"/>
  <path d="m190 154 220 72L312 92Z" fill="#ffd968" stroke="#d28a13" stroke-width="13" stroke-linejoin="round"/>
  <circle cx="178" cy="303" r="27" fill="#d78e18"/><circle cx="300" cy="273" r="22" fill="#d78e18"/><circle cx="363" cy="340" r="28" fill="#d78e18"/>
  <path d="M257 348V206" stroke="#063c27" stroke-width="24" stroke-linecap="round"/>
  <path d="M257 258c-54-2-87-29-101-72 51-5 87 16 101 72Zm0 42c51-3 85-27 101-68-50-4-85 16-101 68Z" fill="#2f7a4e" stroke="#063c27" stroke-width="8" stroke-linejoin="round"/>
</svg>
